# File created by Blade
# Date/Time:  Tue Jan 27 17:21:46 2015
#---------------------------------------------------------
:version 1.10
:name HOM
:units
  mass 1.0
  length 1.000000
  angle deg
:documentation
     Acclaim Skeleton File
:root
   axis xyz
   order TX TY TZ RX RY RZ
   position 0.000000 0.000000 0.000000
   orientation 0 0 0
:bonedata
   begin
      id 1
      name Spine_dum
      direction 0.000000 1.000000 0.000000
      length 7.539951
      axis 0.0 0.0 0.0 xyz
   end
   begin
      id 2
      name LeftUpLeg_dum
      direction 1.000000 0.000000 0.000000
      length 3.345476
      axis 0.0 0.0 0.0 xyz
   end
   begin
      id 3
      name RightUpLeg_dum
      direction -1.000000 0.000000 0.000000
      length 3.345476
      axis 0.0 0.0 0.0 xyz
   end
   begin
      id 4
      name Spine
      direction 0.000000 1.000000 0.000000
      length 0.000000
      axis 0.0 0.0 0.0 xyz
      dof rx ry rz
   end
   begin
      id 5
      name Spine_dum1
      direction 0.000000 1.000000 0.000000
      length 15.093809
      axis 0.0 0.0 0.0 xyz
   end
   begin
      id 6
      name Spine_dum2
      direction 0.000000 1.000000 0.000000
      length 9.738928
      axis 0.0 0.0 0.0 xyz
   end
   begin
      id 7
      name Spine_dum3
      direction 0.000000 1.000000 0.000000
      length 9.738928
      axis 0.0 0.0 0.0 xyz
   end
   begin
      id 8
      name Head
      direction 0.000000 1.000000 0.000000
      length 4.527550
      axis 0.0 0.0 0.0 xyz
      dof rx ry rz
   end
   begin
      id 9
      name LeftShoulder
      direction 1.000000 0.000000 0.000000
      length 7.084015
      axis 0.0 0.0 -90.0 xyz
      dof rx ry rz
   end
   begin
      id 10
      name LeftArm
      direction 1.000000 0.000000 0.000000
      length 10.259319
      axis 0.0 0.0 -90.0 xyz
      dof rx ry rz
   end
   begin
      id 11
      name LeftForeArm
      direction 1.000000 0.000000 0.000000
      length 9.896984
      axis 0.0 0.0 -90.0 xyz
      dof ry rz rx
   end
   begin
      id 12
      name LeftHand
      direction 0.000000 0.000000 0.000000
      length 0.000000
      axis 0.0 0.0 -90.0 xyz
      dof rx ry rz
   end
   begin
      id 13
      name LeftHand_dum1
      direction 0.000000 0.000000 0.000000
      length 0.000000
      axis 0.0 0.0 -90.0 xyz
   end
   begin
      id 14
      name LeftHand_dum2
      direction 1.000000 0.000000 0.000000
      length 3.937000
      axis 0.0 0.0 -90.0 xyz
   end
   begin
      id 15
      name LeftHandThumb1
      direction 0.000000 0.000000 1.000000
      length 3.937000
      axis 0.0 0.0 -90.0 xyz
      dof rx rz ry
   end
   begin
      id 16
      name RightShoulder
      direction -1.000000 0.000000 0.000000
      length 7.084015
      axis 0.0 0.0 90.0 xyz
      dof rx ry rz
   end
   begin
      id 17
      name RightArm
      direction -1.000000 0.000000 0.000000
      length 10.259319
      axis 0.0 0.0 90.0 xyz
      dof rx ry rz
   end
   begin
      id 18
      name RightForeArm
      direction -1.000000 0.000000 0.000000
      length 9.896984
      axis 0.0 0.0 90.0 xyz
      dof ry rz rx
   end
   begin
      id 19
      name RightHand
      direction 0.000000 0.000000 0.000000
      length 0.000000
      axis 0.0 0.0 90.0 xyz
      dof rx ry rz
   end
   begin
      id 20
      name RightHand_dum1
      direction 0.000000 0.000000 0.000000
      length 0.000000
      axis 0.0 0.0 90.0 xyz
   end
   begin
      id 21
      name RightHand_dum2
      direction -1.000000 0.000000 0.000000
      length 3.937000
      axis 0.0 0.0 90.0 xyz
   end
   begin
      id 22
      name RightHandThumb1
      direction 0.000000 0.000000 1.000000
      length 3.937000
      axis 0.0 0.0 90.0 xyz
      dof rx rz ry
   end
   begin
      id 23
      name LeftUpLeg
      direction 0.000000 -1.000000 0.000000
      length 19.114733
      axis 0.0 0.0 0.0 xyz
      dof rx ry rz
   end
   begin
      id 24
      name LeftLeg
      direction 0.000000 -1.000000 0.000000
      length 16.045604
      axis 0.0 0.0 0.0 xyz
      dof rx ry rz
   end
   begin
      id 25
      name LeftFoot
      direction 0.000000 -0.258819 0.965926
      length 5.543155
      axis 15.0 0.0 0.0 xyz
      dof rx ry rz
   end
   begin
      id 26
      name LeftToeBase
      direction 0.000000 0.000000 1.000000
      length 2.952750
      axis 0.0 0.0 0.0 xyz
      dof rx ry rz
   end
   begin
      id 27
      name RightUpLeg
      direction 0.000000 -1.000000 0.000000
      length 19.114733
      axis 0.0 0.0 0.0 xyz
      dof rx ry rz
   end
   begin
      id 28
      name RightLeg
      direction 0.000000 -1.000000 0.000000
      length 16.045604
      axis 0.0 0.0 0.0 xyz
      dof rx ry rz
   end
   begin
      id 29
      name RightFoot
      direction 0.000000 -0.258819 0.965926
      length 5.543155
      axis 15.0 0.0 0.0 xyz
      dof rx ry rz
   end
   begin
      id 30
      name RightToeBase
      direction 0.000000 0.000000 1.000000
      length 2.952750
      axis 0.0 0.0 0.0 xyz
      dof rx ry rz
   end
:hierarchy
   begin
      root Spine_dum LeftUpLeg_dum RightUpLeg_dum
      Spine_dum Spine
      LeftUpLeg_dum LeftUpLeg
      RightUpLeg_dum RightUpLeg
      Spine Spine_dum1 Spine_dum2 Spine_dum3
      Spine_dum1 Head
      Spine_dum2 LeftShoulder
      Spine_dum3 RightShoulder
      LeftShoulder LeftArm
      LeftArm LeftForeArm
      LeftForeArm LeftHand
      LeftHand LeftHand_dum1 LeftHand_dum2
      LeftHand_dum1 LeftHandThumb1
      RightShoulder RightArm
      RightArm RightForeArm
      RightForeArm RightHand
      RightHand RightHand_dum1 RightHand_dum2
      RightHand_dum1 RightHandThumb1
      LeftUpLeg LeftLeg
      LeftLeg LeftFoot
      LeftFoot LeftToeBase
      RightUpLeg RightLeg
      RightLeg RightFoot
      RightFoot RightToeBase
   end

# File created by Blade
# Date/Time:  Tue Jan 27 17:21:37 2015
# Frame Rate: 120.000 fps
#------------------------------------------------------
:FULLY-SPECIFIED
:DEGREES
720
root -3.658713 36.625684 -0.252083 -4.438708 -57.064029 1.201718
Spine 2.638510 19.628079 -4.466153
Head 10.617228 6.168977 3.527886
LeftShoulder -8.343012 -8.499348 11.325633
LeftArm -24.568560 -30.167188 -25.618693
LeftForeArm 11.976475 -0.000000 70.764052
LeftHand -19.541562 -0.000000 44.866956
LeftHandThumb1 -26.253704 0.000000 33.147579
RightShoulder -4.000845 -18.610038 2.533735
RightArm 32.152222 -32.796128 47.692059
RightForeArm 171.443650 0.000000 28.237804
RightHand 0.817589 -0.000000 -3.547080
RightHandThumb1 -24.326973 -0.000000 -32.862282
LeftUpLeg -51.945174 0.904565 6.964417
LeftLeg 72.137676 -0.000000 -0.000000
LeftFoot 12.435328 -3.075561 -29.716410
LeftToeBase 15.541068 -0.000000 -0.000000
RightUpLeg -2.411184 -1.897123 5.230098
RightLeg 21.042842 -0.000000 -0.000000
RightFoot -17.406907 7.106404 -7.651095
RightToeBase 1.007702 -0.000000 -0.000000
721
root -3.665220 36.628922 -0.254757 -4.394473 -57.044004 1.190954
Spine 2.616057 19.626136 -4.488449
Head 10.513987 6.183555 3.523371
LeftShoulder -8.341005 -8.472443 11.350696
LeftArm -24.621593 -30.258908 -25.587256
LeftForeArm 11.978447 -0.000000 70.744430
LeftHand -19.593869 0.000000 44.771583
LeftHandThumb1 -26.253704 0.000000 33.147579
RightShoulder -4.014420 -18.619694 2.538976
RightArm 32.126061 -32.796218 47.700661
RightForeArm 171.458990 -0.000000 28.297762
RightHand 0.824723 -0.000000 -3.524631
RightHandThumb1 -24.326973 -0.000000 -32.862282
LeftUpLeg -51.830218 0.823260 7.119763
LeftLeg 72.938160 -0.000000 -0.000000
LeftFoot 12.483849 -3.419541 -29.974183
LeftToeBase 15.439591 -0.000000 -0.000000
RightUpLeg -2.401967 -1.885526 5.241438
RightLeg 20.961355 -0.000000 -0.000000
RightFoot -17.370682 7.135130 -7.631430
RightToeBase 1.000885 -0.000000 -0.000000
722
root -3.671515 36.631730 -0.258687 -4.318357 -57.020954 1.151615
Spine 2.583699 19.614955 -4.499720
Head 10.416198 6.191599 3.520055
LeftShoulder -8.346293 -8.439770 11.339989
LeftArm -24.687987 -30.253285 -25.500290
LeftForeArm 11.870901 -0.000000 70.767336
LeftHand -19.578929 -0.000000 44.767279
LeftHandThumb1 -26.253704 0.000000 33.147579
RightShoulder -4.027373 -18.635897 2.551395
RightArm 32.111797 -32.785601 47.688536
RightForeArm 171.488910 0.000000 28.354969
RightHand 0.834191 -0.000000 -3.512680
RightHandThumb1 -24.326973 -0.000000 -32.862282
LeftUpLeg -51.741844 0.784028 7.239775
LeftLeg 73.682899 -0.000000 -0.000000
LeftFoot 12.448338 -3.583593 -29.977077
LeftToeBase 15.251040 -0.000000 -0.000000
RightUpLeg -2.408670 -1.895064 5.268343
RightLeg 20.889699 -0.000000 -0.000000
RightFoot -17.331233 7.172251 -7.624232
RightToeBase 1.017796 -0.000000 -0.000000
723
root -3.677772 36.634526 -0.262739 -4.254371 -57.005466 1.118394
Spine 2.565258 19.616675 -4.510693
Head 10.328227 6.211059 3.527425
LeftShoulder -8.363106 -8.412135 11.352095
LeftArm -24.729935 -30.274575 -25.458734
LeftForeArm 11.793679 -0.000000 70.768333
LeftHand -19.517427 0.000000 44.761008
LeftHandThumb1 -26.253704 0.000000 33.147579
RightShoulder -4.045128 -18.649523 2.553983
RightArm 32.104280 -32.774219 47.685831
RightForeArm 171.507475 -0.000000 28.417349
RightHand 0.883044 -0.000000 -3.494400
RightHandThumb1 -24.326973 -0.000000 -32.862282
LeftUpLeg -51.627762 0.730386 7.389208
LeftLeg 74.344564 -0.000000 -0.000000
LeftFoot 12.180724 -3.751009 -30.051479
LeftToeBase 15.252796 -0.000000 -0.000000
RightUpLeg -2.409872 -1.903973 5.290973
RightLeg 20.822562 -0.000000 -0.000000
RightFoot -17.298600 7.216538 -7.590974
RightToeBase 1.028879 -0.000000 -0.000000
724
root -3.682424 36.637065 -0.267395 -4.187059 -56.965758 1.080693
Spine 2.554441 19.595053 -4.514113
Head 10.249487 6.212849 3.515591
LeftShoulder -8.373095 -8.393587 11.357332
LeftArm -24.768660 -30.276817 -25.416564
LeftForeArm 11.863049 -0.000000 70.766703
LeftHand -19.587041 0.000000 44.890693
LeftHandThumb1 -26.253704 0.000000 33.147579
RightShoulder -4.063351 -18.659803 2.546972
RightArm 32.120278 -32.756132 47.682149
RightForeArm 171.525812 -0.000000 28.441383
RightHand 0.854628 -0.000000 -3.439142
RightHandThumb1 -24.326973 -0.000000 -32.862282
LeftUpLeg -51.529867 0.686572 7.494642
LeftLeg 74.937194 -0.000000 -0.000000
LeftFoot 11.875045 -3.846229 -29.609632
LeftToeBase 14.877819 -0.000000 -0.000000
RightUpLeg -2.415435 -1.950784 5.313295
RightLeg 20.757562 -0.000000 -0.000000
RightFoot -17.261522 7.275137 -7.571717
RightToeBase 1.030089 -0.000000 -0.000000
725
root -3.686818 36.639923 -0.273295 -4.125145 -56.933249 1.048463
Spine 2.544909 19.581656 -4.527461
Head 10.184891 6.225962 3.527187
LeftShoulder -8.389456 -8.380409 11.370681
LeftArm -24.813332 -30.286253 -25.379180
LeftForeArm 11.774666 -0.000000 70.792875
LeftHand -19.625487 0.000000 44.834112
LeftHandThumb1 -26.253704 0.000000 33.147579
RightShoulder -4.072056 -18.656461 2.545670
RightArm 32.131063 -32.753183 47.665995
RightForeArm 171.577805 0.000000 28.476864
RightHand 0.845558 -0.000000 -3.396526
RightHandThumb1 -24.326973 -0.000000 -32.862282
LeftUpLeg -51.421254 0.648381 7.604184
LeftLeg 75.441555 -0.000000 -0.000000
LeftFoot 11.409602 -3.818601 -29.398066
LeftToeBase 14.894395 -0.000000 -0.000000
RightUpLeg -2.424911 -1.992321 5.334123
RightLeg 20.702163 -0.000000 -0.000000
RightFoot -17.221123 7.327034 -7.567705
RightToeBase 0.998364 -0.000000 -0.000000
726
root -3.691357 36.642344 -0.279381 -4.048661 -56.896510 1.001099
Spine 2.529790 19.555876 -4.530531
Head 10.137012 6.233827 3.537501
LeftShoulder -8.404811 -8.372676 11.385958
LeftArm -24.887030 -30.316711 -25.318885
LeftForeArm 11.666714 -0.000000 70.804184
LeftHand -19.488391 -0.000000 44.756820
LeftHandThumb1 -26.253704 0.000000 33.147579
RightShoulder -4.062141 -18.658165 2.529499
RightArm 32.122574 -32.723326 47.689040
RightForeArm 171.585011 -0.000000 28.503803
RightHand 0.845697 -0.000000 -3.397961
RightHandThumb1 -24.326973 -0.000000 -32.862282
LeftUpLeg -51.318010 0.604303 7.718100
LeftLeg 75.893030 -0.000000 -0.000000
LeftFoot 10.838398 -3.666916 -29.364320
LeftToeBase 14.906423 -0.000000 -0.000000
RightUpLeg -2.433330 -2.041980 5.360201
RightLeg 20.641324 -0.000000 -0.000000
RightFoot -17.196739 7.408209 -7.531331
RightToeBase 1.098074 -0.000000 -0.000000
